<svg width="514" height="114" viewBox="0 0 514 114" fill="none" xmlns="http://www.w3.org/2000/svg">
<rect width="514" height="114" fill="#EFF9FF"/>
<path d="M137.52 49.94V44.12H143.48V42.32H137.52V37.42H144.34V35.6H127.78V37.42H135.56V49.94H131.58V40.82H129.66V49.94H127.06V51.74H144.96V49.94H137.52ZM161.7 45.2H165.96V43.48H161.7V39.88H159.82V43.48H155.54V45.2H159.82V50.36H154.78V52.1H166.72V50.36H161.7V45.2ZM156.74 37.14C157.06 36.32 157.34 35.5 157.6 34.68L155.66 34.2C155.4 35.18 155.1 36.16 154.68 37.14H149.28V38.92H153.88C152.64 41.36 150.94 43.6 148.74 45.1C149.04 45.54 149.46 46.34 149.66 46.84C150.4 46.32 151.1 45.72 151.74 45.1V52.54H153.6V42.94C154.52 41.7 155.3 40.34 155.98 38.92H166.74V37.14H156.74ZM173.34 52.46C174.54 51.28 175.18 49.38 175.6 47.72L174.06 47.22C173.68 48.74 172.96 50.42 171.9 51.46L173.34 52.46ZM176.62 47.74C176.96 49.04 177.16 50.7 177.12 51.78L178.74 51.56C178.74 50.46 178.52 48.82 178.14 47.56L176.62 47.74ZM179.56 47.56C180.04 48.68 180.48 50.14 180.62 51.1L182.14 50.7C181.98 49.76 181.5 48.34 181.02 47.24L179.56 47.56ZM183.86 39.22C183.72 39.9 183.56 40.56 183.42 41.14H179C179.36 40.52 179.72 39.88 180.04 39.22H183.86ZM176.4 44.7C176.96 44.08 177.48 43.42 177.96 42.74H185.28C185.16 43.44 185 44.12 184.84 44.7H176.4ZM186.52 44.7C186.8 43.64 187.08 42.28 187.3 41.14H185.12C185.38 40.08 185.66 38.7 185.9 37.54H180.8C181.18 36.6 181.54 35.64 181.84 34.68L179.94 34.2C179.62 35.32 179.24 36.44 178.76 37.54H175.96L177.54 36.86C177.16 36.14 176.3 35.02 175.56 34.24L173.9 34.9C174.6 35.7 175.4 36.8 175.74 37.54H171.56V39.22H177.96C176.3 42.4 173.88 45.22 170.58 47C170.9 47.4 171.36 48.14 171.6 48.58C172.74 47.92 173.8 47.18 174.74 46.34H186.74C186.48 49.16 186.16 50.4 185.78 50.74C185.56 50.92 185.38 50.96 185.04 50.96C184.64 50.96 183.74 50.96 182.8 50.86C183.1 51.32 183.32 52.06 183.34 52.56C184.36 52.6 185.32 52.6 185.86 52.54C186.46 52.5 186.9 52.34 187.3 51.92C187.94 51.28 188.3 49.56 188.64 45.46C188.68 45.24 188.72 44.7 188.72 44.7H186.52ZM185.24 49.38C185.02 48.68 184.4 47.56 183.84 46.76L182.52 47.24C183.1 48.06 183.66 49.22 183.88 49.94L185.24 49.38ZM208.54 37.56C208.28 38.2 207.98 38.86 207.74 39.32L209.32 39.66C209.8 38.8 210.4 37.42 210.9 36.24L209.6 35.92L209.32 35.98H202.42C202.62 35.54 202.78 35.12 202.94 34.66L201.24 34.24C200.62 36.06 199.52 37.8 198.2 38.94C198.6 39.18 199.28 39.78 199.58 40.1C200.28 39.42 200.96 38.54 201.58 37.56H208.54ZM206.76 40.42C207.68 41.64 208.7 43.3 209.14 44.38L210.7 43.56C210.26 42.48 209.24 40.9 208.26 39.72L206.76 40.42ZM204.52 48.4C203.98 47.42 202.76 46.02 201.72 45.06L200.28 45.84C201.32 46.88 202.5 48.34 202.96 49.3L204.52 48.4ZM201.2 39.76C200.68 41.08 199.76 42.38 198.72 43.26C199.12 43.52 199.78 44.06 200.1 44.36C201.16 43.34 202.24 41.78 202.9 40.22L201.2 39.76ZM205.9 38.2H204.12V45.6H205.9V38.2ZM195.6 45.68H197.38V37.44C198 36.56 198.6 35.64 199.06 34.72L197.42 34.16C196.32 36.32 194.54 38.42 192.72 39.78C193.1 40.12 193.66 40.9 193.9 41.26C194.46 40.8 195.04 40.24 195.6 39.64V45.68ZM194.7 51.8C195.38 50.56 196.06 48.7 196.56 47.34L194.92 46.66C194.46 48 193.72 49.8 192.96 50.96L194.7 51.8ZM200.56 50.52C199.32 50.52 199.08 50.42 199.08 49.84V46.62H197.22V49.88C197.22 51.7 197.88 52.22 200.44 52.22H204.8C206.88 52.22 207.44 51.58 207.68 48.94C207.18 48.86 206.4 48.58 205.98 48.26C205.86 50.24 205.68 50.52 204.66 50.52H200.56ZM207.12 46.92C208 48.36 208.88 50.28 209.16 51.5L210.94 50.8C210.6 49.54 209.68 47.7 208.76 46.28L207.12 46.92ZM217.42 48.88V44.46H221.14V48.88H217.42ZM221.14 39.04V42.84H217.42V39.04H221.14ZM226.8 37.32C227.12 36.44 227.38 35.52 227.62 34.6L225.82 34.18C225.22 36.82 224.16 39.48 222.84 41.2V37.42H219.64C219.96 36.58 220.34 35.52 220.68 34.52L218.66 34.18C218.54 35.14 218.24 36.46 217.96 37.42H215.72V52.04H217.42V50.52H222.84V41.34C223.3 41.6 224 42.1 224.3 42.38C224.94 41.46 225.56 40.3 226.12 39.02H230.84C230.58 46.56 230.32 49.58 229.68 50.24C229.46 50.52 229.24 50.58 228.84 50.58C228.34 50.58 227.18 50.56 225.9 50.46C226.24 50.98 226.46 51.76 226.5 52.26C227.64 52.32 228.82 52.34 229.52 52.26C230.28 52.16 230.76 51.98 231.26 51.32C232.06 50.32 232.3 47.22 232.58 38.2C232.6 37.96 232.6 37.32 232.6 37.32H226.8ZM229.36 46.34C228.76 45.16 227.4 43.26 226.34 41.88L224.88 42.7C225.94 44.14 227.24 46.1 227.8 47.32L229.36 46.34ZM239.6 41.42C239.4 40.44 238.78 38.92 238.14 37.76L236.74 38.42C237.34 39.62 237.94 41.2 238.12 42.18L239.6 41.42ZM249.18 47.98V46.58H252.4V47.98H249.18ZM244.32 47.98V46.58H247.46V47.98H244.32ZM247.46 43.88V45.24H244.32V43.88H247.46ZM252.4 45.24H249.18V43.88H252.4V45.24ZM254.14 42.48H251.04C250.72 42.3 250.3 42.1 249.86 41.92C251.28 41.2 252.7 40.32 253.76 39.44L252.68 38.5L252.28 38.6H243.14V39.94H250.58C249.88 40.4 249.1 40.88 248.36 41.24C247.44 40.86 246.48 40.5 245.62 40.26L244.58 41.26C245.58 41.58 246.72 42.02 247.76 42.48H242.62V52.58H244.32V49.32H247.46V52.36H249.18V49.32H252.4V50.86C252.4 51.1 252.32 51.18 252.06 51.18C251.86 51.18 251.04 51.18 250.24 51.16C250.44 51.56 250.66 52.12 250.74 52.54C251.98 52.54 252.84 52.54 253.4 52.3C253.96 52.06 254.14 51.7 254.14 50.88V42.48ZM248.62 36.04C248.32 35.46 247.86 34.66 247.4 34.08L245.64 34.56C245.92 35.02 246.24 35.54 246.5 36.04H239.72V42.26C239.72 42.78 239.72 43.32 239.68 43.88C238.48 44.5 237.36 45.06 236.54 45.44L237.14 47.14C237.9 46.72 238.7 46.22 239.52 45.74C239.22 47.7 238.6 49.72 237.16 51.28C237.52 51.5 238.22 52.16 238.46 52.54C241.06 49.78 241.46 45.38 241.46 42.26V37.66H254.98V36.04H248.62ZM265 40.16C265.34 39.42 265.72 38.2 266.1 37.22L265.08 36.84C264.92 37.72 264.54 39.06 264.26 39.88L265 40.16ZM261.12 37.12C261.42 38.06 261.66 39.28 261.7 40.08L262.6 39.8C262.54 39.04 262.26 37.82 261.96 36.9L261.12 37.12ZM260.96 36.2H262.9V40.8H260.96V36.2ZM266.14 40.8H264.1V36.2H266.14V40.8ZM267.94 45.98H264.34V44.68H267.66V43.22H264.34V42.1H267.6V34.9H259.54V42.1H262.7V43.22H259.48V44.68H262.7V45.98H259.12V47.44H267.94V45.98ZM260.02 52.32C260.6 51.36 261 49.82 261.22 48.58L259.98 48.12C259.76 49.32 259.3 50.84 258.7 51.78L260.02 52.32ZM261.8 48.6C262 49.68 262.1 51.12 262.04 52.06L263.28 51.9C263.3 50.98 263.2 49.54 262.98 48.46L261.8 48.6ZM263.82 48.58C264.2 49.6 264.54 50.94 264.62 51.84L265.82 51.56C265.72 50.7 265.34 49.38 264.96 48.36L263.82 48.58ZM265.82 48.54C266.4 49.52 266.92 50.84 267.12 51.7L268.34 51.24C268.12 50.38 267.58 49.08 266.98 48.12L265.82 48.54ZM274.68 50H270.24V45.3H274.68V50ZM277.18 40.18V38.46H273.12V34.24H271.32V43.62H268.56V52.56H270.24V51.7H274.68V52.48H276.44V43.62H273.12V40.18H277.18ZM140.48 69.72H129.56V70.98H142.32V68.78H144.94V67.34H142.32V65.16H129.66V66.44H140.48V67.48H127.16V68.68H140.48V69.72ZM127.5 76.44C129.62 76.32 132.58 76.12 135.46 75.88V74.54L132.24 74.74V73.2H135.1V71.86H127.72V73.2H130.5V74.84C129.32 74.92 128.26 74.98 127.38 75.02L127.5 76.44ZM138.06 73.1H142.08V74.78H138.06V73.1ZM145.02 77.12H141V76.04H143.92V71.86H136.32V76.04H139.16V77.12H127V78.64H131.18L130.32 79.36C131.4 80.02 132.66 81.06 133.24 81.78L134.56 80.62C134.04 80 133.06 79.24 132.14 78.64H139.16V80.74C139.16 81.02 139.08 81.08 138.74 81.1C138.44 81.12 137.26 81.12 136.08 81.08C136.32 81.5 136.58 82.14 136.68 82.58C138.32 82.58 139.38 82.58 140.08 82.34C140.78 82.12 141 81.7 141 80.8V78.64H145.02V77.12ZM165.6 67.44C165 66.66 163.8 65.44 162.86 64.6L161.46 65.52C162.38 66.4 163.56 67.66 164.08 68.5L165.6 67.44ZM155.74 72.7C154.98 72.92 154.2 73.12 153.46 73.32V69.86H155.76V68.14H153.46V64.24H151.64V68.14H148.98V69.86H151.64V73.8C150.54 74.1 149.54 74.32 148.72 74.52L149.22 76.3L151.64 75.64V80.36C151.64 80.66 151.54 80.74 151.26 80.76C151.02 80.76 150.16 80.76 149.3 80.74C149.52 81.2 149.78 81.96 149.84 82.42C151.2 82.42 152.1 82.38 152.68 82.08C153.26 81.82 153.46 81.34 153.46 80.38V75.14C154.3 74.9 155.14 74.64 155.96 74.4L155.74 72.7ZM164.42 71.54C163.78 73 162.84 74.42 161.74 75.74C161.36 74.38 161.06 72.78 160.84 70.98L166.88 70.36L166.7 68.6L160.66 69.22C160.5 67.68 160.42 66.04 160.36 64.32H158.48C158.56 66.1 158.66 67.8 158.8 69.42L155.98 69.68L156.16 71.46L158.96 71.18C159.26 73.54 159.64 75.6 160.18 77.3C158.72 78.66 157.04 79.76 155.26 80.46C155.8 80.84 156.4 81.44 156.76 81.92C158.2 81.24 159.62 80.28 160.9 79.16C161.86 81.12 163.16 82.3 164.92 82.46C165.98 82.56 166.88 81.58 167.36 78.16C166.98 77.98 166.16 77.52 165.8 77.1C165.64 79.26 165.34 80.3 164.84 80.26C163.86 80.14 163.04 79.22 162.4 77.7C163.86 76.12 165.1 74.32 165.92 72.48L164.42 71.54ZM176.5 75.96V73.94H178V75.96H176.5ZM173.68 73.94H175.2V75.96H173.66C173.68 75.46 173.68 74.98 173.68 74.52V73.94ZM176.3 67.46C176.08 68.08 175.82 68.74 175.56 69.26H173.52C173.82 68.7 174.1 68.08 174.36 67.46H176.3ZM176.5 70.66H178V72.56H176.5V70.66ZM173.68 70.66H175.2V72.56H173.68V70.66ZM186.98 66.76C186.88 68.8 186.74 69.62 186.52 69.86C186.4 70.02 186.24 70.06 185.98 70.04C185.7 70.04 185.06 70.04 184.36 69.96C184.58 70.38 184.74 71.02 184.78 71.5C185.58 71.54 186.38 71.54 186.8 71.48C187.32 71.42 187.66 71.28 187.94 70.92C188.36 70.44 188.54 69.1 188.68 65.86C188.7 65.66 188.7 65.22 188.7 65.22H180V66.76H182.48C182.16 68.46 181.44 69.86 179.54 70.7V69.26H177.16C177.6 68.42 178.04 67.46 178.36 66.62L177.28 65.94L177.02 66.02H174.92C175.08 65.54 175.22 65.06 175.36 64.58L173.66 64.2C173.08 66.62 172.02 68.94 170.64 70.44C171.02 70.68 171.7 71.26 172 71.54L172.18 71.32V74.5C172.18 76.74 172.04 79.68 170.7 81.78C171.06 81.94 171.74 82.36 172.02 82.6C172.96 81.16 173.38 79.24 173.56 77.38H178V80.64C178 80.9 177.9 80.98 177.64 81C177.4 81 176.56 81 175.6 80.98C175.84 81.38 176.1 82.12 176.18 82.54C177.48 82.54 178.28 82.52 178.84 82.26C179.38 81.98 179.54 81.46 179.54 80.66V70.88C179.88 71.2 180.24 71.7 180.42 72.04C182.88 70.94 183.8 69.1 184.2 66.76H186.98ZM189.24 77.34H185.6V75.18H188.86V73.58H185.6V71.66H183.84V73.58H182.44C182.58 73.1 182.7 72.62 182.8 72.14L181.26 71.82C180.94 73.48 180.36 75.1 179.54 76.22C179.92 76.38 180.62 76.72 180.94 76.96C181.28 76.46 181.6 75.86 181.88 75.18H183.84V77.34H179.88V78.96H183.84V82.48H185.6V78.96H189.24V77.34ZM198.8 66.5C197.98 65.8 196.32 64.92 195 64.44L194 65.82C195.32 66.36 196.92 67.3 197.7 68.02L198.8 66.5ZM197.6 71.86C196.76 71.18 195.14 70.34 193.86 69.86L192.88 71.26C194.18 71.8 195.78 72.72 196.58 73.42L197.6 71.86ZM197.32 74.74C196.16 77.02 194.64 79.56 193.56 81.08L195.14 82.32C196.32 80.44 197.66 78.06 198.68 75.98L197.32 74.74ZM204.94 69.08H207.78V73.2H204.86C204.92 72.48 204.94 71.76 204.94 71.04V69.08ZM211.16 74.94V73.2H209.6V67.34H204.94V64.24H203.08V67.34H199.3V69.08H203.08V71.04C203.08 71.76 203.06 72.5 203 73.2H198.26V74.94H202.72C202.2 77.34 200.84 79.54 197.58 81.26C198.06 81.54 198.74 82.2 199.08 82.58C202.74 80.58 204.16 77.86 204.66 74.94H211.16ZM205.46 76.06C206.9 78.14 208.76 80.94 209.62 82.56L211.28 81.6C210.34 80 208.4 77.28 207 75.28L205.46 76.06ZM232.74 69.36V67.54H224.52L225.86 66.96C225.58 66.16 224.96 64.96 224.44 64.06L222.62 64.74C223.08 65.6 223.62 66.74 223.88 67.54H215.32V69.36H220.56C220.36 73.76 219.9 78.6 214.94 81.14C215.44 81.52 216.02 82.16 216.3 82.66C220 80.66 221.46 77.44 222.1 74H228.84C228.52 78.08 228.16 79.92 227.6 80.4C227.34 80.6 227.08 80.64 226.64 80.64C226.08 80.64 224.72 80.62 223.3 80.5C223.68 81.02 223.94 81.78 223.96 82.32C225.3 82.4 226.6 82.42 227.34 82.36C228.18 82.28 228.7 82.12 229.24 81.56C230.04 80.76 230.42 78.56 230.8 73.04C230.86 72.78 230.88 72.2 230.88 72.2H222.38C222.5 71.26 222.56 70.3 222.62 69.36H232.74ZM252.66 68.58H254.44V65.64H247.24C246.98 65.16 246.62 64.62 246.36 64.18L244.44 64.62C244.6 64.94 244.8 65.28 245 65.64H237.64V68.58H239.36V67.2H252.66V68.58ZM248.38 70.72C247.82 71.34 247.12 71.88 246.28 72.28C245.1 72.06 243.88 71.84 242.66 71.64C242.96 71.34 243.28 71.04 243.6 70.72H248.38ZM254.62 74.42C253.04 73.9 250.96 73.32 248.64 72.8C249.44 72.22 250.1 71.54 250.64 70.72H254.74V69.24H251.42C251.54 68.94 251.66 68.64 251.76 68.32L249.94 67.94C249.78 68.4 249.62 68.84 249.4 69.24H244.94C245.38 68.74 245.76 68.24 246.1 67.76L244.34 67.2C243.92 67.86 243.42 68.54 242.84 69.24H237.3V70.72H241.54C240.9 71.38 240.28 72.04 239.72 72.54C241.02 72.74 242.32 72.98 243.58 73.22C241.84 73.6 239.76 73.8 237.22 73.9C237.48 74.3 237.74 74.9 237.88 75.44C241.64 75.2 244.54 74.78 246.7 73.88C249.18 74.42 251.28 75.04 252.82 75.62L254.62 74.42ZM241.8 78.12C240.8 79.22 238.96 80.22 237.22 80.82C237.68 81.12 238.42 81.72 238.78 82.08C240.48 81.32 242.48 80.08 243.64 78.72L241.8 78.12ZM254.96 76.34H246.88V74.82H245.02V76.34H237.12V77.88H245.02V82.56H246.88V77.88H249.44L248.18 79.04C249.94 79.9 252.18 81.28 253.26 82.24L254.68 80.92C253.52 79.96 251.24 78.68 249.5 77.88H254.96V76.34ZM263.26 67.78V75.28H261.12V67.78H263.26ZM264.94 77.02V66.04H259.46V78.76H261.12V77.02H264.94ZM265.6 81.88C266.48 80.74 266.9 78.8 267.16 77.16L265.76 76.74C265.54 78.34 265.06 80.12 264.28 81.2L265.6 81.88ZM267.86 77.1C268.18 78.4 268.34 80.02 268.28 81.08L269.6 80.86C269.64 79.8 269.46 78.18 269.14 76.9L267.86 77.1ZM270.06 76.96C270.52 78.04 270.96 79.46 271.06 80.38L272.3 80C272.16 79.08 271.72 77.66 271.22 76.6L270.06 76.96ZM274.52 78.94C274.34 78.2 273.8 77.08 273.28 76.26L272.24 76.64C272.72 77.48 273.24 78.62 273.42 79.38L274.52 78.94ZM267.98 72.74H270.62V74.34H267.98V72.74ZM270.62 66.68V68.24H267.98V66.68H270.62ZM270.62 71.26H267.98V69.7H270.62V71.26ZM272.36 74.34V72.74H275.82V71.26H272.36V69.7H275.82V68.24H272.36V66.68H276.28V65.08H266.22V75.92H275.1C274.92 79.18 274.7 80.44 274.38 80.8C274.24 81 274.06 81.02 273.78 81.02C273.46 81.02 272.8 81.02 272.04 80.94C272.28 81.36 272.44 82.06 272.48 82.54C273.36 82.56 274.16 82.56 274.62 82.5C275.16 82.44 275.48 82.3 275.84 81.9C276.34 81.3 276.58 79.54 276.82 75.04C276.84 74.82 276.84 74.34 276.84 74.34H272.36ZM288.72 76.04H290.76C290.34 73.12 294.94 72.62 294.94 69.64C294.94 67.18 292.98 65.78 290.14 65.78C287.98 65.78 286.32 66.72 285.04 68.16L286.36 69.38C287.44 68.24 288.58 67.68 289.88 67.68C291.72 67.68 292.7 68.54 292.7 69.84C292.7 71.96 288.18 72.78 288.72 76.04ZM289.76 81.14C290.6 81.14 291.26 80.52 291.26 79.62C291.26 78.72 290.6 78.1 289.76 78.1C288.92 78.1 288.28 78.72 288.28 79.62C288.28 80.52 288.92 81.14 289.76 81.14Z" fill="#1061A3"/>
<rect x="337" y="34" width="150" height="46" rx="3" fill="url(#paint0_linear)"/>
<g filter="url(#filter0_d)">
<path d="M362.8 65.206C364.024 64.18 364.582 62.416 364.924 60.742L363.736 60.418C363.466 61.984 362.836 63.568 361.72 64.522L362.8 65.206ZM366.31 61.03C366.616 62.182 366.85 63.64 366.868 64.612L368.056 64.414C368.02 63.442 367.786 61.984 367.462 60.85L366.31 61.03ZM369.406 60.922C369.874 61.948 370.324 63.316 370.45 64.144L371.566 63.82C371.422 62.992 370.954 61.66 370.432 60.688L369.406 60.922ZM365.338 56.71H369.532V58.474H365.338V56.71ZM369.532 51.004V52.768H365.338V51.004H369.532ZM369.532 55.612H365.338V53.848H369.532V55.612ZM370.846 58.474V56.71H375.994V55.612H370.846V53.848H375.994V52.768H370.846V51.004H376.606V49.816H364.042V59.662H376.318C376.12 62.524 375.886 63.658 375.562 64.018C375.418 64.162 375.238 64.198 374.914 64.198C374.608 64.198 373.762 64.198 372.88 64.09C373.078 64.432 373.204 64.972 373.24 65.314C374.158 65.386 375.058 65.386 375.526 65.35C376.03 65.314 376.372 65.188 376.678 64.846C377.182 64.288 377.452 62.812 377.686 59.05C377.722 58.87 377.74 58.474 377.74 58.474H370.846ZM374.842 62.668C374.572 62.02 373.906 60.994 373.258 60.256L372.286 60.652C372.898 61.408 373.546 62.47 373.816 63.136L374.842 62.668ZM389.908 63.19V56.062H396.604V54.73H389.908V49.222H388.504V63.19H381.79V64.522H397.828V63.19H389.908ZM410.23 59.158V56.44H415.27V59.158H410.23ZM403.984 59.158V56.44H408.862V59.158H403.984ZM408.862 52.588V55.198H403.984V52.588H408.862ZM415.27 52.588V55.198H410.23V52.588H415.27ZM410.23 51.31V48.934H408.862V51.31H402.67V61.48H403.984V60.454H408.862V65.35H410.23V60.454H415.27V61.39H416.62V51.31H410.23ZM427.168 49.564H422.056V50.644H427.168V49.564ZM427.816 51.922H421.156V53.02H427.816V51.922ZM427.204 54.352H421.984V55.414H427.204V54.352ZM421.984 57.808H427.204V56.728H421.984V57.808ZM426.07 60.238V63.262H423.136V60.238H426.07ZM427.222 59.14H421.966V65.17H423.136V64.342H427.222V59.14ZM430.354 61.048V59.752H435.232V61.048H430.354ZM435.232 57.52V58.798H430.354V57.52H435.232ZM436.492 56.494H429.112V65.332H430.354V62.002H435.232V63.946C435.232 64.162 435.178 64.216 434.962 64.234C434.728 64.234 433.99 64.252 433.18 64.216C433.36 64.522 433.522 64.99 433.558 65.314C434.674 65.314 435.43 65.314 435.898 65.134C436.366 64.936 436.492 64.612 436.492 63.964V56.494ZM433.288 54.424V53.236H436.924V52.246H433.288V51.166H437.194V50.158H433.288V48.934H432.01V50.158H428.212V51.166H432.01V52.246H428.68V53.236H432.01V54.424H427.762V55.45H437.59V54.424H433.288Z" fill="white"/>
</g>
<path d="M463 46.3438C468.887 46.3438 473.656 51.1133 473.656 57C473.656 62.8867 468.887 67.6562 463 67.6562C457.113 67.6562 452.344 62.8867 452.344 57C452.344 51.1133 457.113 46.3438 463 46.3438ZM458.016 58.8906H463V61.9371C463 62.3969 463.559 62.6289 463.881 62.3023L468.792 57.3652C468.994 57.1633 468.994 56.841 468.792 56.6391L463.881 51.6977C463.554 51.3711 463 51.6031 463 52.0629V55.1094H458.016C457.732 55.1094 457.5 55.3414 457.5 55.625V58.375C457.5 58.6586 457.732 58.8906 458.016 58.8906Z" fill="white"/>
<g clip-path="url(#clip0)">
<rect x="-0.885742" y="-42" width="97.9719" height="161.441" fill="#F6F6F6"/>
<path d="M42.563 -42H97.0865V79.8259L42.563 48.3045V-42Z" fill="url(#paint1_linear)"/>
<path d="M-16.8342 71.7325L43.8407 71.3066L35.1729 93.0308H-27.2954L-16.8342 71.7325Z" fill="white"/>
<path d="M-22.1841 85.3635L57.0454 84.9375L42.5626 114.329H-39.2227L-22.1841 85.3635Z" fill="white"/>
<rect x="-23.4614" y="71.3066" width="45.5782" height="13.6309" fill="#868686"/>
<path d="M22.1162 71.3065L31.9134 57.6757V71.3065L22.1162 84.9374V71.3065Z" fill="url(#paint2_linear)"/>
<rect x="-23.4614" y="71.3066" width="45.5782" height="13.6309" fill="#1061A3"/>
<rect x="-12.8125" y="93.0308" width="44.3003" height="13.6309" fill="#1061A3"/>
<path d="M31.4878 93.2438L43.8408 71.3066V84.9375L31.4878 106.875V93.2438Z" fill="url(#paint3_linear)"/>
<path d="M42.563 114.329L57.0458 84.9375V98.5684L42.563 127.96V114.329Z" fill="url(#paint4_linear)"/>
<path d="M-13.2383 58.1016L31.914 57.6757L22.1168 71.3065H-23.4614L-13.2383 58.1016Z" fill="#FFFDFD"/>
</g>
<defs>
<filter id="filter0_d" x="359.72" y="47.934" width="79.87" height="20.4396" filterUnits="userSpaceOnUse" color-interpolation-filters="sRGB">
<feFlood flood-opacity="0" result="BackgroundImageFix"/>
<feColorMatrix in="SourceAlpha" type="matrix" values="0 0 0 0 0 0 0 0 0 0 0 0 0 0 0 0 0 0 127 0"/>
<feOffset dy="1"/>
<feGaussianBlur stdDeviation="1"/>
<feColorMatrix type="matrix" values="0 0 0 0 0 0 0 0 0 0 0 0 0 0 0 0 0 0 0.25 0"/>
<feBlend mode="normal" in2="BackgroundImageFix" result="effect1_dropShadow"/>
<feBlend mode="normal" in="SourceGraphic" in2="effect1_dropShadow" result="shape"/>
</filter>
<linearGradient id="paint0_linear" x1="384.679" y1="57" x2="575" y2="57" gradientUnits="userSpaceOnUse">
<stop stop-color="#1061A3"/>
<stop offset="1" stop-color="#45A7B9" stop-opacity="0"/>
</linearGradient>
<linearGradient id="paint1_linear" x1="69.8247" y1="-42" x2="69.8247" y2="79.8259" gradientUnits="userSpaceOnUse">
<stop stop-color="#4DC6C9" stop-opacity="0"/>
<stop offset="1" stop-color="#105FA0"/>
</linearGradient>
<linearGradient id="paint2_linear" x1="27.0148" y1="57.6757" x2="27.0148" y2="84.9374" gradientUnits="userSpaceOnUse">
<stop stop-color="#105FA0"/>
<stop offset="1" stop-color="#4DC6C9" stop-opacity="0"/>
</linearGradient>
<linearGradient id="paint3_linear" x1="37.6643" y1="71.3066" x2="37.6643" y2="106.875" gradientUnits="userSpaceOnUse">
<stop stop-color="#105FA0"/>
<stop offset="1" stop-color="#4DC6C9" stop-opacity="0"/>
</linearGradient>
<linearGradient id="paint4_linear" x1="49.8044" y1="84.9375" x2="49.8044" y2="127.96" gradientUnits="userSpaceOnUse">
<stop stop-color="#105FA0"/>
<stop offset="1" stop-color="#4DC6C9" stop-opacity="0"/>
</linearGradient>
<clipPath id="clip0">
<rect width="174" height="113" fill="white" transform="translate(1 1)"/>
</clipPath>
</defs>
</svg>
