<svg width="136" height="136" viewBox="0 0 136 136" fill="none" xmlns="http://www.w3.org/2000/svg">
<circle cx="68" cy="68" r="68" fill="#E8F5FF"/>
<g clip-path="url(#clip0)">
<path d="M41 86.3167C41 88.789 43.0297 90.7947 45.5313 90.7947H90.8448C93.3465 90.7947 95.3761 88.789 95.3761 86.3167V69.8974H41V86.3167ZM59.1254 79.9729C59.1254 79.3572 59.6351 78.8534 60.2582 78.8534H73.097C73.7201 78.8534 74.2298 79.3572 74.2298 79.9729V83.7046C74.2298 84.3203 73.7201 84.8241 73.097 84.8241H60.2582C59.6351 84.8241 59.1254 84.3203 59.1254 83.7046V79.9729ZM47.0418 79.9729C47.0418 79.3572 47.5516 78.8534 48.1746 78.8534H54.9716C55.5947 78.8534 56.1045 79.3572 56.1045 79.9729V83.7046C56.1045 84.3203 55.5947 84.8241 54.9716 84.8241H48.1746C47.5516 84.8241 47.0418 84.3203 47.0418 83.7046V79.9729ZM95.3761 53.478V57.956H41V53.478C41 51.0058 43.0297 49 45.5313 49H90.8448C93.3465 49 95.3761 51.0058 95.3761 53.478Z" fill="#4DC6C9"/>
</g>
<defs>
<clipPath id="clip0">
<rect width="54.3761" height="41.7947" fill="white" transform="translate(41 49)"/>
</clipPath>
</defs>
</svg>
