<svg width="136" height="136" viewBox="0 0 136 136" fill="none" xmlns="http://www.w3.org/2000/svg">
<circle cx="68" cy="68" r="68" fill="#E8F5FF"/>
<g clip-path="url(#clip0)">
<path d="M93.4844 67.9082C93.5102 81.6578 82.1682 92.901 68.2605 92.9106C62.2538 92.9149 56.7363 90.8448 52.4005 87.3851C51.273 86.4855 51.1888 84.815 52.2133 83.8021L53.3601 82.6684C54.2363 81.8021 55.6353 81.7073 56.6061 82.4687C59.8005 84.9748 63.8432 86.4706 68.2422 86.4706C78.5941 86.4706 86.9703 78.188 86.9703 67.9554C86.9703 57.7212 78.5924 49.4401 68.2422 49.4401C63.2738 49.4401 58.7612 51.3489 55.4106 54.4646L60.5765 59.5718C61.6025 60.5861 60.8759 62.3203 59.425 62.3203H44.6285C43.7291 62.3203 43 61.5995 43 60.7103V46.0819C43 44.6476 44.7541 43.9292 45.7801 44.9434L50.8053 49.9115C55.337 45.63 61.4789 43 68.2422 43C82.1672 43 93.4587 54.1474 93.4844 67.9082ZM75.0706 75.8359L76.0705 74.565C76.8988 73.5122 76.7069 71.9948 75.6419 71.176L71.4993 67.9905V57.4902C71.4993 56.1564 70.4056 55.0752 69.0565 55.0752H67.4279C66.0788 55.0752 64.9852 56.1564 64.9852 57.4902V71.1403L71.6427 76.2596C72.7076 77.0784 74.2423 76.8888 75.0706 75.8359Z" fill="#4DC6C9"/>
</g>
<defs>
<clipPath id="clip0">
<rect width="50.4845" height="49.9106" fill="white" transform="translate(43 43)"/>
</clipPath>
</defs>
</svg>
