<svg width="17" height="20" viewBox="0 0 17 20" fill="none" xmlns="http://www.w3.org/2000/svg">
<g clip-path="url(#clip0)">
<path d="M8.00744 0C12.4033 0 16.0272 3.71789 16.0272 8.31776C16.0272 10.6357 15.2325 12.7876 13.9244 14.6116C12.4813 16.6235 10.7026 18.3765 8.70048 19.7524C8.24226 20.0704 7.82872 20.0944 7.32582 19.7524C5.31231 18.3765 3.53362 16.6235 2.10287 14.6116C0.793804 12.7876 0 10.6357 0 8.31776C0 3.71789 3.62393 0 8.00744 0ZM8.00744 5.77683C6.55388 5.77683 5.3684 7.0478 5.3684 8.57675C5.3684 10.1177 6.55388 11.3297 8.00744 11.3297C9.46196 11.3297 10.6588 10.1177 10.6588 8.57675C10.6588 7.0478 9.46196 5.77683 8.00744 5.77683Z" fill="#1061A3"/>
</g>
<defs>
<clipPath id="clip0">
<rect width="16.0272" height="20" fill="white"/>
</clipPath>
</defs>
</svg>
