<svg width="18" height="20" viewBox="0 0 18 20" fill="none" xmlns="http://www.w3.org/2000/svg">
<path d="M9.63259 0C10.3456 0 10.9911 0.42 11.3476 1.04C11.521 1.34 11.6366 1.71 11.6077 2.1C11.5885 2.4 11.6752 2.7 11.8293 2.98C12.3207 3.83 13.4094 4.15 14.2573 3.67C15.2111 3.09 16.4155 3.44 16.9647 4.43L17.6102 5.61C18.169 6.6 17.8607 7.87 16.8972 8.44C16.0783 8.95 15.7892 10.08 16.2806 10.94C16.4348 11.21 16.6082 11.44 16.878 11.58C17.2152 11.77 17.4753 12.07 17.6584 12.37C18.0149 12.99 17.986 13.75 17.6391 14.42L16.9647 15.62C16.6082 16.26 15.9434 16.66 15.2593 16.66C14.9221 16.66 14.5463 16.56 14.238 16.36C13.9875 16.19 13.6985 16.13 13.3902 16.13C12.4363 16.13 11.6366 16.96 11.6077 17.95C11.6077 19.1 10.7213 20 9.61332 20H8.30299C7.18535 20 6.29895 19.1 6.29895 17.95C6.27968 16.96 5.47999 16.13 4.52614 16.13C4.2082 16.13 3.91915 16.19 3.67828 16.36C3.36997 16.56 2.98458 16.66 2.65699 16.66C1.96329 16.66 1.29848 16.26 0.941997 15.62L0.277196 14.42C-0.0792919 13.77 -0.0985615 12.99 0.257926 12.37C0.412083 12.07 0.701127 11.77 1.02871 11.58C1.29848 11.44 1.47191 11.21 1.6357 10.94C2.11744 10.08 1.8284 8.95 1.00944 8.44C0.0555953 7.87 -0.252718 6.6 0.296465 5.61L0.941997 4.43C1.50082 3.44 2.69553 3.09 3.65901 3.67C4.49724 4.15 5.58597 3.83 6.07735 2.98C6.2315 2.7 6.31822 2.4 6.29895 2.1C6.27968 1.71 6.38566 1.34 6.56872 1.04C6.92521 0.42 7.57074 0.02 8.27408 0H9.63259ZM8.96779 7.18C7.45512 7.18 6.2315 8.44 6.2315 10.01C6.2315 11.58 7.45512 12.83 8.96779 12.83C10.4805 12.83 11.6752 11.58 11.6752 10.01C11.6752 8.44 10.4805 7.18 8.96779 7.18Z" fill="#1061A3"/>
</svg>
