<svg width="136" height="136" viewBox="0 0 136 136" fill="none" xmlns="http://www.w3.org/2000/svg">
<circle cx="68" cy="68" r="68" fill="#E8F5FF"/>
<g clip-path="url(#clip0)">
<path d="M60.8782 69.236H75.3129C76.1104 69.236 76.7563 68.5321 76.7563 67.663V66.09C76.7563 65.2209 76.1104 64.5169 75.3129 64.5169H60.8782C60.0807 64.5169 59.4347 65.2209 59.4347 66.09V67.663C59.4347 68.5321 60.0807 69.236 60.8782 69.236ZM59.4347 77.101C59.4347 77.9701 60.0807 78.6741 60.8782 78.6741H75.3129C76.1104 78.6741 76.7563 77.9701 76.7563 77.101V75.528C76.7563 74.6589 76.1104 73.955 75.3129 73.955H60.8782C60.0807 73.955 59.4347 74.6589 59.4347 75.528V77.101ZM68.0955 89.0097C66.6142 89.0097 65.1328 88.5123 63.868 87.5164L45 72.6632V93.6177C45 96.224 46.9388 98.3367 49.3304 98.3367H86.8606C89.2523 98.3367 91.191 96.224 91.191 93.6177V72.6632L72.3231 87.5164C71.0582 88.5113 69.5769 89.0097 68.0955 89.0097ZM89.5319 64.0205C88.7335 63.3382 87.9766 62.6962 86.8606 61.7779V57.4384C86.8606 54.8321 84.9219 52.7193 82.5302 52.7193H75.5339C75.2596 52.5031 75.0043 52.3005 74.7183 52.0744C73.2018 50.8681 70.1885 47.9659 68.0955 48.0003C66.0025 47.9659 62.9901 50.8681 61.4727 52.0744C61.1867 52.3005 60.9314 52.5031 60.6571 52.7193H53.6608C51.2692 52.7193 49.3304 54.8321 49.3304 57.4384V61.7779C48.2144 62.6952 47.4575 63.3382 46.6591 64.0205C46.1423 64.4618 45.7244 65.0255 45.4369 65.6688C45.1495 66.3121 45.0001 67.0182 45 67.7338V68.7808L53.6608 75.5988V57.4384H82.5302V75.5988L91.191 68.7808V67.7338C91.191 66.2846 90.5794 64.9151 89.5319 64.0205Z" fill="#4DC6C9"/>
</g>
<defs>
<clipPath id="clip0">
<rect width="46.191" height="50.3367" fill="white" transform="translate(45 48)"/>
</clipPath>
</defs>
</svg>
