<svg width="136" height="136" viewBox="0 0 136 136" fill="none" xmlns="http://www.w3.org/2000/svg">
<circle cx="68" cy="68" r="68" fill="#E8F5FF"/>
<g clip-path="url(#clip0)">
<path d="M66.1621 44C51.7116 44 40 54.3539 40 67.1323C40 72.6485 42.187 77.6975 45.8252 81.6678C44.5477 87.273 40.2759 92.2664 40.2248 92.322C40 92.5778 39.9387 92.9559 40.0715 93.2896C40.2044 93.6232 40.4905 93.8234 40.8176 93.8234C47.5931 93.8234 52.6723 90.2868 55.1863 88.1071C58.5281 89.475 62.2378 90.2646 66.1621 90.2646C80.6126 90.2646 92.3242 79.9107 92.3242 67.1323C92.3242 54.3539 80.6126 44 66.1621 44ZM53.081 70.6911C51.2722 70.6911 49.8108 69.1008 49.8108 67.1323C49.8108 65.1638 51.2722 63.5735 53.081 63.5735C54.8899 63.5735 56.3513 65.1638 56.3513 67.1323C56.3513 69.1008 54.8899 70.6911 53.081 70.6911ZM66.1621 70.6911C64.3532 70.6911 62.8918 69.1008 62.8918 67.1323C62.8918 65.1638 64.3532 63.5735 66.1621 63.5735C67.971 63.5735 69.4324 65.1638 69.4324 67.1323C69.4324 69.1008 67.971 70.6911 66.1621 70.6911ZM79.2431 70.6911C77.4343 70.6911 75.9729 69.1008 75.9729 67.1323C75.9729 65.1638 77.4343 63.5735 79.2431 63.5735C81.052 63.5735 82.5134 65.1638 82.5134 67.1323C82.5134 69.1008 81.052 70.6911 79.2431 70.6911Z" fill="#4DC6C9"/>
</g>
<defs>
<clipPath id="clip0">
<rect width="52.3242" height="49.8234" fill="white" transform="translate(40 44)"/>
</clipPath>
</defs>
</svg>
