<svg width="19" height="20" viewBox="0 0 19 20" fill="none" xmlns="http://www.w3.org/2000/svg">
<g clip-path="url(#clip0)">
<path d="M9.55335 0C4.19837 0 0.144415 4.65699 0.144415 9.98498C0.144415 16.1642 4.89602 20 9.57221 20C11.1184 20 12.8342 19.5593 14.2107 18.698C14.6915 18.3876 15.0969 18.1572 15.6154 18.3375L17.5198 18.9384C18.0007 19.0986 18.4343 18.698 18.2929 18.1572L17.6613 15.9139C17.5575 15.6034 17.5764 15.2729 17.7272 15.0125C18.538 13.4301 19 11.6975 19 10.015C19 4.74712 15.0309 0 9.55335 0ZM5.24485 8.74311C5.91422 8.74311 6.45161 9.31397 6.45161 10.025C6.45161 10.7261 5.91422 11.307 5.24485 11.307C4.57548 11.307 4.03809 10.7261 4.03809 10.025C4.03809 9.31397 4.57548 8.74311 5.24485 8.74311ZM9.59106 8.74311C10.251 8.7331 10.7978 9.31397 10.7978 10.015C10.7978 10.7261 10.2604 11.2969 9.59106 11.307C8.92169 11.307 8.38431 10.7261 8.38431 10.025C8.38431 9.31397 8.92169 8.74311 9.59106 8.74311ZM13.9373 8.74311C14.6066 8.74311 15.144 9.31397 15.144 10.025C15.144 10.7261 14.5972 11.307 13.9373 11.307C13.2679 11.2969 12.7305 10.7261 12.7305 10.025C12.7305 9.31397 13.2679 8.74311 13.9373 8.74311Z" fill="#1061A3"/>
</g>
<defs>
<clipPath id="clip0">
<rect width="18.8556" height="20" fill="white" transform="matrix(-1 0 0 1 19 0)"/>
</clipPath>
</defs>
</svg>
