<svg width="540" height="146" viewBox="0 0 540 146" fill="none" xmlns="http://www.w3.org/2000/svg">
<rect width="337" height="53" fill="#1061A3"/>
<rect y="53" width="337" height="93" fill="#EEEEEE"/>
<rect x="337" y="53" width="203" height="93" fill="#F9F7F7"/>
<rect x="337" width="203" height="53" fill="#D7D7D7"/>
<path d="M203.768 26.12V27.416H218.296V26.12H203.768ZM233.16 23.512C232.84 24.616 232.36 25.816 231.976 26.568C232.264 26.696 232.712 26.936 232.968 27.08C233.528 25.976 234.232 24.296 234.648 22.744L233.768 22.28L233.544 22.344H227.752C227.992 21.544 228.216 20.712 228.376 19.864L227.096 19.624C226.616 22.152 225.736 24.648 224.52 26.2C224.84 26.344 225.432 26.664 225.688 26.872C226.328 25.96 226.872 24.808 227.368 23.512H233.16ZM225.192 22.12H221V23.272H225.192V22.12ZM225.672 28.68H220.648V29.848H225.672V28.68ZM229.928 24.184H228.68V25.4C228.68 27.688 228.328 31.016 223.736 33.336C224.008 33.544 224.44 33.992 224.632 34.264C227.688 32.664 229 30.616 229.56 28.664C230.472 31.24 231.96 33.144 234.36 34.12C234.536 33.784 234.904 33.32 235.144 33.08C232.232 32.072 230.648 29.512 229.912 26.136C229.928 25.912 229.928 25.672 229.928 25.432V24.184ZM238.024 27.048C238.44 25.88 238.744 24.072 238.824 22.76L237.928 22.632C237.816 23.928 237.528 25.672 237.096 26.728L238.024 27.048ZM239.4 34.216H240.584V19.608H239.4V34.216ZM240.696 22.552C241.144 23.432 241.624 24.584 241.8 25.272L242.696 24.84C242.504 24.168 242.008 23.032 241.528 22.168L240.696 22.552ZM247.72 32.536V28.536H250.984V27.432H247.72V24.12H251.336V22.984H247.72V19.672H246.536V22.984H244.536C244.76 22.2 244.952 21.368 245.112 20.536L243.96 20.344C243.592 22.52 242.952 24.664 242.024 26.056C242.312 26.184 242.84 26.44 243.08 26.6C243.512 25.912 243.88 25.08 244.2 24.12H246.536V27.432H243.144V28.536H246.536V32.536H241.96V33.672H251.72V32.536H247.72ZM261.496 32.28V25.944H267.448V24.76H261.496V19.864H260.248V32.28H254.28V33.464H268.536V32.28H261.496ZM283.56 25.272H280.28V21.96H283.56V25.272ZM284.728 20.904H279.16V26.312H284.728V20.904ZM276.824 22.344C276.664 24.392 276.504 25.224 276.296 25.464C276.168 25.608 276.04 25.624 275.832 25.624C275.592 25.624 275.048 25.608 274.424 25.56C274.6 25.848 274.712 26.28 274.744 26.616C275.384 26.648 275.992 26.648 276.328 26.616C276.712 26.584 276.984 26.488 277.24 26.2C277.624 25.784 277.784 24.648 277.96 21.784C277.976 21.64 277.992 21.304 277.992 21.304H274.712C274.776 20.776 274.808 20.216 274.84 19.64H273.672C273.656 20.216 273.624 20.792 273.576 21.304H271.144V22.344H273.432C273.128 24.104 272.456 25.432 270.84 26.264C271.096 26.44 271.432 26.872 271.576 27.128C273.464 26.12 274.248 24.488 274.584 22.344H276.824ZM275.128 29.848C274.248 31.032 272.696 32.104 271.208 32.792C271.496 32.968 271.976 33.368 272.2 33.592C273.64 32.808 275.288 31.576 276.296 30.232L275.128 29.848ZM284.968 29.304V28.232H278.776V26.696H277.56V28.232H271.224V29.304H277.56V34.248H278.776V29.304H284.968ZM279.944 30.536C281.512 31.4 283.432 32.76 284.344 33.656L285.24 32.84C284.28 31.944 282.312 30.648 280.76 29.816L279.944 30.536ZM292.632 31.88C291.496 32.472 289.544 33.032 287.912 33.336C288.168 33.544 288.584 33.992 288.76 34.232C290.376 33.816 292.392 33.096 293.704 32.36L292.632 31.88ZM291.096 30.088H299.096V31.096H291.096V30.088ZM296.232 24.728V25.832H297.352V24.728H300.728C300.68 25.064 300.616 25.224 300.536 25.304C300.456 25.4 300.344 25.416 300.168 25.416C299.992 25.416 299.56 25.4 299.064 25.352C299.144 25.496 299.224 25.688 299.256 25.864H292.12C292.648 25.528 293.016 25.144 293.256 24.728H296.232ZM292.648 22.984C292.616 23.32 292.552 23.64 292.408 23.944H290.296C290.344 23.64 290.392 23.32 290.44 22.984H292.648ZM293.768 21.288H296.232V22.2H293.768V21.288ZM299.832 21.288V22.2H297.352V21.288H299.832ZM296.232 23.944H293.576C293.672 23.64 293.72 23.32 293.736 22.984H296.232V23.944ZM299.096 27.624H291.096V26.632H299.096V27.624ZM299.096 29.336H291.096V28.36H299.096V29.336ZM300.28 31.864V26.168C300.44 26.168 300.584 26.152 300.696 26.152C301.016 26.136 301.256 26.056 301.464 25.864C301.688 25.656 301.784 25.192 301.88 24.328C301.896 24.184 301.912 23.944 301.912 23.944H297.352V22.984H300.92V20.504H297.352V19.624H296.232V20.504H293.768V19.624H292.68V20.504H288.776V21.288H292.68V22.2H289.496C289.4 23.032 289.24 24.024 289.096 24.728H291.816C291.144 25.336 289.976 25.848 287.96 26.216C288.152 26.44 288.408 26.872 288.52 27.144C289.048 27.032 289.528 26.92 289.944 26.792V31.864H297.032L296.44 32.44C298.264 32.984 300.072 33.656 301.144 34.152L302.04 33.416C300.952 32.952 299.208 32.344 297.544 31.864H300.28Z" fill="white"/>
<path d="M65.368 28.104C65.496 27.16 65.544 26.248 65.544 25.416H72.856V28.104H65.368ZM72.856 21.624V24.28H65.544V21.624H72.856ZM74.088 20.456H64.344V25.352C64.344 27.896 64.088 31.144 61.544 33.384C61.784 33.56 62.264 33.992 62.424 34.248C63.976 32.888 64.776 31.08 65.176 29.272H72.856V32.472C72.856 32.824 72.728 32.936 72.36 32.952C71.992 32.952 70.712 32.968 69.384 32.92C69.576 33.256 69.8 33.816 69.88 34.152C71.592 34.152 72.648 34.136 73.256 33.928C73.848 33.736 74.088 33.32 74.088 32.488V20.456ZM83.432 31.88C82.296 32.472 80.344 33.032 78.712 33.336C78.968 33.544 79.384 33.992 79.56 34.232C81.176 33.816 83.192 33.096 84.504 32.36L83.432 31.88ZM81.896 30.088H89.896V31.096H81.896V30.088ZM87.032 24.728V25.832H88.152V24.728H91.528C91.48 25.064 91.416 25.224 91.336 25.304C91.256 25.4 91.144 25.416 90.968 25.416C90.792 25.416 90.36 25.4 89.864 25.352C89.944 25.496 90.024 25.688 90.056 25.864H82.92C83.448 25.528 83.816 25.144 84.056 24.728H87.032ZM83.448 22.984C83.416 23.32 83.352 23.64 83.208 23.944H81.096C81.144 23.64 81.192 23.32 81.24 22.984H83.448ZM84.568 21.288H87.032V22.2H84.568V21.288ZM90.632 21.288V22.2H88.152V21.288H90.632ZM87.032 23.944H84.376C84.472 23.64 84.52 23.32 84.536 22.984H87.032V23.944ZM89.896 27.624H81.896V26.632H89.896V27.624ZM89.896 29.336H81.896V28.36H89.896V29.336ZM91.08 31.864V26.168C91.24 26.168 91.384 26.152 91.496 26.152C91.816 26.136 92.056 26.056 92.264 25.864C92.488 25.656 92.584 25.192 92.68 24.328C92.696 24.184 92.712 23.944 92.712 23.944H88.152V22.984H91.72V20.504H88.152V19.624H87.032V20.504H84.568V19.624H83.48V20.504H79.576V21.288H83.48V22.2H80.296C80.2 23.032 80.04 24.024 79.896 24.728H82.616C81.944 25.336 80.776 25.848 78.76 26.216C78.952 26.44 79.208 26.872 79.32 27.144C79.848 27.032 80.328 26.92 80.744 26.792V31.864H87.832L87.24 32.44C89.064 32.984 90.872 33.656 91.944 34.152L92.84 33.416C91.752 32.952 90.008 32.344 88.344 31.864H91.08Z" fill="white"/>
<path d="M399.56 96.273C402.71 96.273 405.104 94.593 405.104 89.637V80.586H403.235V89.7C403.235 93.417 401.618 94.572 399.56 94.572C397.565 94.572 395.99 93.417 395.99 89.7V80.586H394.037V89.637C394.037 94.593 396.431 96.273 399.56 96.273ZM413.713 96.273C416.926 96.273 418.942 94.341 418.942 91.905C418.942 89.616 417.556 88.566 415.771 87.789L413.566 86.844C412.369 86.34 411.025 85.773 411.025 84.282C411.025 82.896 412.159 82.014 413.902 82.014C415.33 82.014 416.464 82.581 417.409 83.463L418.438 82.224C417.346 81.09 415.729 80.313 413.902 80.313C411.109 80.313 409.051 82.035 409.051 84.408C409.051 86.655 410.752 87.747 412.18 88.356L414.406 89.322C415.855 89.973 416.968 90.477 416.968 92.052C416.968 93.564 415.75 94.572 413.734 94.572C412.138 94.572 410.584 93.816 409.492 92.661L408.316 93.984C409.66 95.391 411.529 96.273 413.713 96.273ZM422.379 96H426.327C430.968 96 433.509 93.123 433.509 88.251C433.509 83.358 430.968 80.586 426.243 80.586H422.379V96ZM424.332 94.404V82.182H426.075C429.708 82.182 431.493 84.345 431.493 88.251C431.493 92.136 429.708 94.404 426.075 94.404H424.332Z" fill="black"/>
<path d="M444.69 96H458.13V92.96H453.522V72.416H450.738C449.394 73.28 447.826 73.824 445.618 74.24V76.576H449.842V92.96H444.69V96ZM469.98 96.416C474.524 96.416 477.596 93.728 477.596 90.24C477.596 87.04 475.74 85.184 473.628 84V83.84C475.1 82.752 476.732 80.704 476.732 78.304C476.732 74.624 474.172 72.064 470.076 72.064C466.236 72.064 463.356 74.464 463.356 78.144C463.356 80.64 464.764 82.4 466.524 83.648V83.808C464.348 84.96 462.3 87.04 462.3 90.144C462.3 93.792 465.564 96.416 469.98 96.416ZM471.516 82.912C468.892 81.888 466.652 80.704 466.652 78.144C466.652 76.032 468.092 74.72 470.012 74.72C472.316 74.72 473.628 76.352 473.628 78.528C473.628 80.096 472.924 81.6 471.516 82.912ZM470.044 93.76C467.516 93.76 465.564 92.128 465.564 89.792C465.564 87.744 466.684 85.984 468.316 84.864C471.516 86.176 474.108 87.264 474.108 90.144C474.108 92.352 472.476 93.76 470.044 93.76Z" fill="#1061A3"/>
<path d="M251.636 111.152H249.32V110.024H251.636V111.152ZM252.464 109.424H248.504V111.752H252.464V109.424ZM246.704 111.152H244.412V110.024H246.704V111.152ZM247.544 109.424H243.608V111.752H247.544V109.424ZM244.796 115.808V114.776H247.508V115.808H244.796ZM244.796 113.072H247.508V114.092H244.796V113.072ZM251.276 114.092H248.42V113.072H251.276V114.092ZM251.276 115.808H248.42V114.776H251.276V115.808ZM253.292 117.44H248.42V116.528H252.188V112.352H243.932V116.528H247.508V117.44H242.732V118.22H247.508V119.912H248.42V118.22H253.292V117.44ZM254.816 113.84V114.812H265.712V113.84H254.816ZM269.996 110.456C269.828 110.024 269.432 109.4 269.084 108.908L268.4 109.256C268.712 109.76 269.108 110.432 269.288 110.864L269.996 110.456ZM271.436 110.996H267.044V111.728H271.436V110.996ZM271.016 112.568H267.536V113.276H271.016V112.568ZM267.536 114.836H271.016V114.128H267.536V114.836ZM270.32 116.468V118.448H268.316V116.468H270.32ZM271.1 115.724H267.536V119.756H268.316V119.192H271.1V115.724ZM276.368 116.396V118.616H272.816V116.396H276.368ZM271.988 119.924H272.816V119.396H276.368V119.888H277.232V115.616H271.988V119.924ZM276.02 112.208V114.008H273.776C273.884 113.492 274.004 112.868 274.136 112.208H276.02ZM276.848 114.008V111.464H274.28C274.364 111.044 274.436 110.612 274.508 110.216H277.724V109.46H271.616V110.216H273.608C273.548 110.612 273.476 111.044 273.404 111.464H271.904V112.208H273.272C273.14 112.856 273.02 113.492 272.9 114.008H271.316V114.764H277.976V114.008H276.848ZM287.552 116.936V118.652H281.912V116.936H287.552ZM281.036 119.912H281.912V119.408H287.552V119.876H288.452V116.168H281.036V119.912ZM281.144 115.04H288.32V114.296H281.144V115.04ZM288.32 112.508H281.144V113.252H288.32V112.508ZM285.308 110.756L285.728 110.612C285.512 110.132 285.008 109.448 284.528 108.944L283.688 109.208C284.084 109.664 284.516 110.3 284.768 110.756H279.416V111.536H290.084V110.756H285.308Z" fill="black"/>
<path d="M434.792 25.352H431.208V23.832H434.792V25.352ZM434.792 27.8H431.208V26.248H434.792V27.8ZM434.792 30.248H431.208V28.696H434.792V30.248ZM430.248 22.888V31.192H435.784V22.888H433.112C433.224 22.44 433.336 21.896 433.448 21.4H436.088V20.376H429.8V21.4H432.28C432.248 21.88 432.184 22.424 432.104 22.888H430.248ZM422.52 34.216C423.032 33.48 423.416 32.312 423.672 31.416L422.792 31.048C422.568 31.912 422.12 33.08 421.624 33.752L422.52 34.216ZM424.28 31.368C424.44 32.2 424.568 33.272 424.584 33.976L425.528 33.832C425.496 33.128 425.336 32.072 425.16 31.24L424.28 31.368ZM423.48 23.08H428.104V24.232H423.48V23.08ZM423.48 21.16H428.104V22.312H423.48V21.16ZM424.344 28.632C424.456 28.888 424.584 29.176 424.664 29.48L423.256 29.608C424.056 28.76 424.872 27.672 425.576 26.552L424.664 26.184C424.52 26.504 424.328 26.792 424.136 27.096L423.08 27.176C423.464 26.632 423.864 25.944 424.152 25.256L423.384 25.032H427.192C426.904 25.832 426.36 26.632 426.2 26.84C426.056 27.048 425.896 27.192 425.72 27.224C425.832 27.464 425.992 27.928 426.04 28.136C426.184 28.04 426.472 27.992 427.528 27.88C427.096 28.424 426.728 28.872 426.552 29.048C426.216 29.368 425.976 29.608 425.72 29.656C425.816 29.88 425.976 30.36 426.024 30.568V30.584C426.264 30.472 426.68 30.392 429.176 30.12C429.288 30.392 429.368 30.632 429.432 30.856L430.2 30.52C430.008 29.912 429.592 29 429.192 28.28L428.472 28.584C428.6 28.824 428.712 29.064 428.84 29.336L427.24 29.496C428.056 28.648 428.872 27.576 429.592 26.504L428.648 26.12C428.504 26.424 428.312 26.728 428.12 27.016L427.032 27.096C427.432 26.584 427.832 25.944 428.152 25.304L427.304 25.032H429.176V20.36H422.456V25.032H423.208C422.968 25.864 422.44 26.696 422.28 26.888C422.12 27.112 421.992 27.256 421.816 27.288C421.928 27.528 422.056 27.976 422.12 28.184C422.28 28.104 422.552 28.04 423.576 27.928C423.144 28.504 422.776 28.968 422.584 29.128C422.28 29.48 422.024 29.704 421.768 29.752C421.88 29.992 422.04 30.456 422.072 30.664C422.296 30.552 422.696 30.488 424.904 30.232C424.968 30.44 425 30.632 425.032 30.792L425.768 30.552C425.64 29.96 425.352 29.08 425.016 28.408L424.344 28.632ZM425.928 31.256C426.216 32.008 426.52 32.984 426.632 33.624L427.496 33.368C427.4 32.744 427.064 31.768 426.76 31.032L425.928 31.256ZM427.72 30.92C428.136 31.576 428.584 32.472 428.776 33.048L429.624 32.696C429.416 32.136 428.952 31.272 428.52 30.616L427.72 30.92ZM431.624 31.592C431.08 32.248 429.992 33.064 429.032 33.528C429.272 33.736 429.608 34.056 429.784 34.264C430.728 33.784 431.864 32.952 432.584 32.168L431.624 31.592ZM433.56 32.184C434.28 32.808 435.16 33.688 435.608 34.264L436.456 33.656C436.024 33.064 435.112 32.232 434.392 31.624L433.56 32.184ZM451.416 20.76H440.248V21.928H451.416V20.76ZM441.496 27.448C440.824 29.24 439.704 31 438.44 32.12C438.744 32.296 439.272 32.648 439.528 32.856C440.76 31.624 441.976 29.736 442.728 27.768L441.496 27.448ZM452.808 25.72V24.552H438.824V25.72H445.112V34.136H446.344V25.72H452.808ZM449.016 27.864C450.168 29.384 451.384 31.464 451.816 32.776L453 32.248C452.52 30.888 451.288 28.888 450.088 27.4L449.016 27.864ZM459.688 20.088C458.696 22.504 457.032 24.84 455.24 26.328C455.56 26.552 456.072 27.048 456.296 27.288C458.072 25.656 459.832 23.112 460.984 20.488L459.688 20.088ZM464.344 28.616C464.984 29.464 465.704 30.504 466.328 31.496L458.936 31.912C460.6 30.008 462.248 27.528 463.624 25.048L462.296 24.488C460.968 27.192 458.92 30.056 458.248 30.792C457.656 31.544 457.192 32.072 456.76 32.168C456.936 32.536 457.16 33.176 457.224 33.432C457.848 33.208 458.728 33.16 467.016 32.584C467.352 33.16 467.656 33.672 467.88 34.12L469.064 33.464C468.296 32.04 466.776 29.8 465.48 28.088L464.344 28.616ZM461.944 20.024V21.224H464.92C465.784 23.64 467.32 25.944 469.128 27.288C469.352 26.952 469.768 26.424 470.056 26.184C468.184 24.952 466.584 22.552 465.816 20.024H461.944ZM480.28 27.288V30.264H475.144V27.288H480.28ZM481.448 31.32V26.232H473.976V32.488H475.144V31.32H481.448ZM482.536 23.448H472.968V24.52H482.536V23.448ZM485.56 20.648H472.856V21.784H484.36V32.456C484.36 32.76 484.28 32.84 483.976 32.856C483.656 32.872 482.552 32.872 481.448 32.84C481.64 33.176 481.816 33.768 481.864 34.12C483.288 34.12 484.28 34.104 484.84 33.896C485.384 33.688 485.56 33.272 485.56 32.456V20.648ZM494.584 32.488V28.552H501.144V32.488H494.584ZM498.552 22.28C497.864 23.672 496.856 24.936 495.672 26.024C494.936 25.224 493.72 24.2 492.648 23.448C493.064 23.08 493.432 22.68 493.784 22.28H498.552ZM502.344 27.464H495.8C497.656 25.896 499.224 23.928 500.168 21.56L499.384 21.144L499.16 21.208H494.648C494.984 20.744 495.288 20.28 495.56 19.832L494.232 19.56C493.304 21.288 491.48 23.336 488.856 24.76C489.128 24.968 489.528 25.4 489.688 25.672C490.456 25.224 491.144 24.728 491.784 24.216C492.84 25 494.008 26.024 494.712 26.84C492.904 28.264 490.808 29.32 488.776 29.912C489.032 30.136 489.336 30.632 489.48 30.952C490.808 30.52 492.136 29.912 493.416 29.16V34.216H494.584V33.576H501.144V34.248H502.344V27.464ZM518.968 19.832C517.256 20.408 514.056 20.824 511.432 21.048C511.56 21.288 511.688 21.672 511.72 21.928C514.392 21.72 517.672 21.336 519.704 20.664L518.968 19.832ZM518.6 21.416C518.136 22.328 517.496 23.256 516.776 23.96C517.064 24.072 517.544 24.312 517.768 24.472C518.424 23.784 519.144 22.696 519.656 21.688L518.6 21.416ZM516.568 23.848C516.408 23.272 515.992 22.44 515.544 21.832L514.6 22.152C515.016 22.776 515.416 23.64 515.56 24.216L516.568 23.848ZM514.088 24.088C513.832 23.512 513.304 22.632 512.744 21.992L511.8 22.376C512.312 23.048 512.856 23.96 513.096 24.552L514.088 24.088ZM511.288 28.248C510.968 27.88 509.656 26.488 509.224 26.088V25.304H511.288V24.2H509.224V21.464C509.96 21.272 510.632 21.048 511.192 20.792L510.296 19.96C509.272 20.472 507.352 20.92 505.688 21.208C505.832 21.448 505.992 21.832 506.04 22.088C506.696 21.992 507.4 21.864 508.104 21.704V24.2H505.768V25.304H507.912C507.4 27.112 506.456 29.208 505.576 30.36C505.784 30.632 506.072 31.112 506.184 31.448C506.888 30.472 507.56 28.936 508.104 27.352V34.264H509.224V27.256C509.72 27.896 510.328 28.728 510.584 29.144L511.288 28.248ZM516.216 30.104V28.584H518.472V30.104H516.216ZM513.032 28.584H515.128V30.104H513.032V28.584ZM515.128 26.168V27.672H513.032V26.168H515.128ZM518.472 26.168V27.672H516.216V26.168H518.472ZM520.488 30.104H519.576V25.208H516.216V24.36H515.128V25.208H511.944V30.104H510.776V31.112H511.944V34.216H513.032V31.112H518.472V32.936C518.472 33.128 518.392 33.176 518.184 33.192C517.992 33.192 517.304 33.208 516.568 33.176C516.712 33.464 516.904 33.912 516.968 34.232C517.976 34.232 518.616 34.216 519.032 34.024C519.448 33.848 519.576 33.528 519.576 32.936V31.112H520.488V30.104Z" fill="#222222"/>
<path d="M75.052 110.972V110.168H67.66C67.84 109.832 67.996 109.484 68.152 109.148L67.276 108.896C66.652 110.408 65.62 111.944 64.516 112.904C64.744 113.036 65.116 113.288 65.308 113.432C65.956 112.784 66.616 111.92 67.204 110.972H75.052ZM70.768 117.572L71.176 117.128C70.696 116.636 69.712 116.012 68.896 115.628L68.392 116.12C69.16 116.516 70.036 117.104 70.54 117.572H66.832C66.928 116.996 67.036 116.324 67.132 115.628H72.88C72.832 116.444 72.784 117.08 72.736 117.572H70.768ZM72.988 112.976C72.964 113.684 72.94 114.296 72.916 114.86H70.864L71.38 114.332C70.9 113.9 69.976 113.348 69.196 113.012L68.692 113.516C69.472 113.852 70.36 114.428 70.828 114.86H67.228C67.324 114.224 67.408 113.588 67.492 112.976H72.988ZM75.46 115.652V114.836H73.78C73.804 114.188 73.84 113.456 73.864 112.616C73.864 112.508 73.876 112.184 73.876 112.184H66.7C66.616 112.988 66.484 113.912 66.364 114.836H64.552V115.652H66.244C66.088 116.66 65.92 117.632 65.788 118.352H66.268V118.364H72.64C72.568 118.736 72.484 118.964 72.4 119.06C72.28 119.204 72.172 119.228 71.956 119.228C71.728 119.24 71.176 119.228 70.564 119.18C70.684 119.384 70.78 119.684 70.792 119.888C71.38 119.924 71.98 119.936 72.328 119.912C72.688 119.876 72.94 119.768 73.168 119.48C73.3 119.288 73.42 118.964 73.516 118.364H75.052V117.572H73.612C73.672 117.068 73.708 116.432 73.756 115.652H75.46ZM83.368 110.396V116.996H84.244V110.396H83.368ZM86.296 109.196V118.736C86.296 118.964 86.2 119.036 85.984 119.036C85.756 119.048 85 119.06 84.16 119.024C84.292 119.276 84.436 119.684 84.484 119.924C85.576 119.924 86.248 119.912 86.644 119.768C87.016 119.612 87.184 119.336 87.184 118.736V109.196H86.296ZM78.28 117.296C77.932 118.076 77.332 118.856 76.696 119.384C76.924 119.516 77.272 119.78 77.44 119.936C78.076 119.348 78.748 118.436 79.144 117.536L78.28 117.296ZM80.332 117.632C80.86 118.28 81.424 119.168 81.664 119.744L82.48 119.336C82.216 118.772 81.652 117.932 81.112 117.308L80.332 117.632ZM78.28 112.424H81.196V113.912H78.28V112.424ZM78.28 114.644H81.196V116.156H78.28V114.644ZM78.28 110.228H81.196V111.692H78.28V110.228ZM77.428 109.424V116.948H82.06V109.424H77.428ZM91.5356 121.148H92.3396L95.9276 109.472H95.1356L91.5356 121.148ZM102.542 115.328C102.638 114.62 102.674 113.936 102.674 113.312H108.158V115.328H102.542ZM108.158 110.468V112.46H102.674V110.468H108.158ZM109.082 109.592H101.774V113.264C101.774 115.172 101.582 117.608 99.6744 119.288C99.8544 119.42 100.214 119.744 100.334 119.936C101.498 118.916 102.098 117.56 102.398 116.204H108.158V118.604C108.158 118.868 108.062 118.952 107.786 118.964C107.51 118.964 106.55 118.976 105.554 118.94C105.698 119.192 105.866 119.612 105.926 119.864C107.21 119.864 108.002 119.852 108.458 119.696C108.902 119.552 109.082 119.24 109.082 118.616V109.592Z" fill="black"/>
<path d="M31.56 96.273C34.71 96.273 37.104 94.593 37.104 89.637V80.586H35.235V89.7C35.235 93.417 33.618 94.572 31.56 94.572C29.565 94.572 27.99 93.417 27.99 89.7V80.586H26.037V89.637C26.037 94.593 28.431 96.273 31.56 96.273ZM45.7132 96.273C48.9262 96.273 50.9422 94.341 50.9422 91.905C50.9422 89.616 49.5562 88.566 47.7712 87.789L45.5662 86.844C44.3692 86.34 43.0252 85.773 43.0252 84.282C43.0252 82.896 44.1592 82.014 45.9022 82.014C47.3302 82.014 48.4642 82.581 49.4092 83.463L50.4382 82.224C49.3462 81.09 47.7292 80.313 45.9022 80.313C43.1092 80.313 41.0512 82.035 41.0512 84.408C41.0512 86.655 42.7522 87.747 44.1802 88.356L46.4062 89.322C47.8552 89.973 48.9682 90.477 48.9682 92.052C48.9682 93.564 47.7502 94.572 45.7342 94.572C44.1382 94.572 42.5842 93.816 41.4922 92.661L40.3162 93.984C41.6602 95.391 43.5292 96.273 45.7132 96.273ZM54.3795 96H58.3275C62.9685 96 65.5095 93.123 65.5095 88.251C65.5095 83.358 62.9685 80.586 58.2435 80.586H54.3795V96ZM56.3325 94.404V82.182H58.0755C61.7085 82.182 63.4935 84.345 63.4935 88.251C63.4935 92.136 61.7085 94.404 58.0755 94.404H56.3325Z" fill="black"/>
<path d="M82.5142 96.416C86.8342 96.416 90.3862 93.92 90.3862 89.664C90.3862 86.496 88.2422 84.448 85.5222 83.776V83.616C88.0182 82.688 89.5862 80.8 89.5862 78.08C89.5862 74.208 86.6102 72 82.3862 72C79.6662 72 77.4902 73.184 75.6342 74.848L77.5542 77.152C78.8982 75.84 80.4342 74.976 82.2582 74.944C84.4982 74.976 85.8742 76.256 85.8742 78.336C85.8742 80.704 84.3382 82.464 79.6982 82.464V85.184C85.0102 85.184 86.6742 86.88 86.6742 89.472C86.6742 91.936 84.8502 93.408 82.1942 93.408C79.7622 93.408 78.0022 92.224 76.6262 90.816L74.8342 93.184C76.4022 94.944 78.8022 96.416 82.5142 96.416ZM99.0042 96H102.78C103.164 86.784 104.028 81.568 109.564 74.688V72.416H94.3962V75.552H105.468C100.924 81.888 99.4202 87.392 99.0042 96Z" fill="#1061A3"/>
<path d="M210.56 96.273C213.71 96.273 216.104 94.593 216.104 89.637V80.586H214.235V89.7C214.235 93.417 212.618 94.572 210.56 94.572C208.565 94.572 206.99 93.417 206.99 89.7V80.586H205.037V89.637C205.037 94.593 207.431 96.273 210.56 96.273ZM224.713 96.273C227.926 96.273 229.942 94.341 229.942 91.905C229.942 89.616 228.556 88.566 226.771 87.789L224.566 86.844C223.369 86.34 222.025 85.773 222.025 84.282C222.025 82.896 223.159 82.014 224.902 82.014C226.33 82.014 227.464 82.581 228.409 83.463L229.438 82.224C228.346 81.09 226.729 80.313 224.902 80.313C222.109 80.313 220.051 82.035 220.051 84.408C220.051 86.655 221.752 87.747 223.18 88.356L225.406 89.322C226.855 89.973 227.968 90.477 227.968 92.052C227.968 93.564 226.75 94.572 224.734 94.572C223.138 94.572 221.584 93.816 220.492 92.661L219.316 93.984C220.66 95.391 222.529 96.273 224.713 96.273ZM233.379 96H237.327C241.968 96 244.509 93.123 244.509 88.251C244.509 83.358 241.968 80.586 237.243 80.586H233.379V96ZM235.332 94.404V82.182H237.075C240.708 82.182 242.493 84.345 242.493 88.251C242.493 92.136 240.708 94.404 237.075 94.404H235.332Z" fill="black"/>
<path d="M261.514 96.416C265.834 96.416 269.386 93.92 269.386 89.664C269.386 86.496 267.242 84.448 264.522 83.776V83.616C267.018 82.688 268.586 80.8 268.586 78.08C268.586 74.208 265.61 72 261.386 72C258.666 72 256.49 73.184 254.634 74.848L256.554 77.152C257.898 75.84 259.434 74.976 261.258 74.944C263.498 74.976 264.874 76.256 264.874 78.336C264.874 80.704 263.338 82.464 258.698 82.464V85.184C264.01 85.184 265.674 86.88 265.674 89.472C265.674 91.936 263.85 93.408 261.194 93.408C258.762 93.408 257.002 92.224 255.626 90.816L253.834 93.184C255.402 94.944 257.802 96.416 261.514 96.416ZM278.004 96H281.78C282.164 86.784 283.028 81.568 288.564 74.688V72.416H273.396V75.552H284.468C279.924 81.888 278.42 87.392 278.004 96Z" fill="#1061A3"/>
<path d="M443.052 110.972V110.168H435.66C435.84 109.832 435.996 109.484 436.152 109.148L435.276 108.896C434.652 110.408 433.62 111.944 432.516 112.904C432.744 113.036 433.116 113.288 433.308 113.432C433.956 112.784 434.616 111.92 435.204 110.972H443.052ZM438.768 117.572L439.176 117.128C438.696 116.636 437.712 116.012 436.896 115.628L436.392 116.12C437.16 116.516 438.036 117.104 438.54 117.572H434.832C434.928 116.996 435.036 116.324 435.132 115.628H440.88C440.832 116.444 440.784 117.08 440.736 117.572H438.768ZM440.988 112.976C440.964 113.684 440.94 114.296 440.916 114.86H438.864L439.38 114.332C438.9 113.9 437.976 113.348 437.196 113.012L436.692 113.516C437.472 113.852 438.36 114.428 438.828 114.86H435.228C435.324 114.224 435.408 113.588 435.492 112.976H440.988ZM443.46 115.652V114.836H441.78C441.804 114.188 441.84 113.456 441.864 112.616C441.864 112.508 441.876 112.184 441.876 112.184H434.7C434.616 112.988 434.484 113.912 434.364 114.836H432.552V115.652H434.244C434.088 116.66 433.92 117.632 433.788 118.352H434.268V118.364H440.64C440.568 118.736 440.484 118.964 440.4 119.06C440.28 119.204 440.172 119.228 439.956 119.228C439.728 119.24 439.176 119.228 438.564 119.18C438.684 119.384 438.78 119.684 438.792 119.888C439.38 119.924 439.98 119.936 440.328 119.912C440.688 119.876 440.94 119.768 441.168 119.48C441.3 119.288 441.42 118.964 441.516 118.364H443.052V117.572H441.612C441.672 117.068 441.708 116.432 441.756 115.652H443.46ZM451.368 110.396V116.996H452.244V110.396H451.368ZM454.296 109.196V118.736C454.296 118.964 454.2 119.036 453.984 119.036C453.756 119.048 453 119.06 452.16 119.024C452.292 119.276 452.436 119.684 452.484 119.924C453.576 119.924 454.248 119.912 454.644 119.768C455.016 119.612 455.184 119.336 455.184 118.736V109.196H454.296ZM446.28 117.296C445.932 118.076 445.332 118.856 444.696 119.384C444.924 119.516 445.272 119.78 445.44 119.936C446.076 119.348 446.748 118.436 447.144 117.536L446.28 117.296ZM448.332 117.632C448.86 118.28 449.424 119.168 449.664 119.744L450.48 119.336C450.216 118.772 449.652 117.932 449.112 117.308L448.332 117.632ZM446.28 112.424H449.196V113.912H446.28V112.424ZM446.28 114.644H449.196V116.156H446.28V114.644ZM446.28 110.228H449.196V111.692H446.28V110.228ZM445.428 109.424V116.948H450.06V109.424H445.428ZM459.536 121.148H460.34L463.928 109.472H463.136L459.536 121.148ZM470.542 115.328C470.638 114.62 470.674 113.936 470.674 113.312H476.158V115.328H470.542ZM476.158 110.468V112.46H470.674V110.468H476.158ZM477.082 109.592H469.774V113.264C469.774 115.172 469.582 117.608 467.674 119.288C467.854 119.42 468.214 119.744 468.334 119.936C469.498 118.916 470.098 117.56 470.398 116.204H476.158V118.604C476.158 118.868 476.062 118.952 475.786 118.964C475.51 118.964 474.55 118.976 473.554 118.94C473.698 119.192 473.866 119.612 473.926 119.864C475.21 119.864 476.002 119.852 476.458 119.696C476.902 119.552 477.082 119.24 477.082 118.616V109.592Z" fill="black"/>
<path d="M364.892 22.816C364.906 22.046 364.906 21.248 364.906 20.45H363.618C363.618 21.262 363.618 22.046 363.604 22.816H361.798V24.09H363.576C363.478 27.478 363.086 30.362 361.434 32.182C361.742 32.378 362.19 32.812 362.4 33.106C364.248 31.062 364.724 27.828 364.85 24.09H366.67C366.558 29.13 366.446 30.964 366.152 31.342C366.026 31.552 365.9 31.58 365.676 31.58C365.438 31.58 364.878 31.566 364.262 31.538C364.486 31.888 364.626 32.448 364.64 32.84C365.284 32.868 365.9 32.868 366.292 32.812C366.74 32.742 367.006 32.602 367.286 32.196C367.72 31.566 367.818 29.494 367.93 23.446C367.944 23.278 367.944 22.816 367.944 22.816H364.892ZM370.17 30.614V23.18H372.466V30.614H370.17ZM368.924 21.92V32.868H370.17V31.86H372.466V32.756H373.782V21.92H368.924ZM385.78 22.62H384.492V21.892H385.78V22.62ZM388.09 23.404V24.58H386.83V23.404H388.09ZM384.492 23.404H385.78V24.58H384.492V23.404ZM382.238 23.404H383.456V24.58H382.238V23.404ZM383.456 22.62H381.104V25.378H389.266V22.62H386.83V21.892H389.7V20.912H380.81V21.892H383.456V22.62ZM379.578 20.31C378.934 22.41 377.856 24.482 376.694 25.84C376.89 26.162 377.226 26.89 377.338 27.212C377.73 26.764 378.094 26.246 378.458 25.672V33.092H379.69V23.404C380.11 22.508 380.474 21.57 380.782 20.646L379.578 20.31ZM382.574 29.578H387.852V30.278H382.574V29.578ZM382.574 28.15H387.852V28.836H382.574V28.15ZM382.574 26.75H387.852V27.422H382.574V26.75ZM389.126 31.048V25.966H381.356V31.048H383.582C382.84 31.524 381.524 31.986 380.334 32.224C380.572 32.448 380.88 32.868 381.034 33.12C382.28 32.826 383.652 32.308 384.52 31.678L383.624 31.048H389.126ZM385.794 31.79C386.956 32.196 388.174 32.728 388.86 33.134L389.98 32.392C389.182 31.986 387.824 31.454 386.62 31.062L385.794 31.79ZM395.874 23.39H394.11V21.836H395.874V23.39ZM395.874 25.966H394.11V24.384H395.874V25.966ZM395.874 28.542H394.11V26.946H395.874V28.542ZM397.05 20.772H392.976V29.592H397.05V20.772ZM393.662 29.802C393.396 30.81 392.878 31.79 392.248 32.448C392.514 32.602 393.004 32.924 393.228 33.12C393.858 32.378 394.46 31.23 394.81 30.082L393.662 29.802ZM395.356 30.208C395.79 30.908 396.294 31.874 396.476 32.476L397.498 31.986C397.274 31.384 396.784 30.474 396.336 29.788L395.356 30.208ZM401.782 29.886V28.99H403.266V29.886H401.782ZM399.22 28.99H400.634V29.886H399.22V28.99ZM400.634 27.31V28.136H399.22V27.31H400.634ZM403.266 27.31V28.136H401.782V27.31H403.266ZM400.326 23.964H402.118V24.706H400.326V23.964ZM400.326 22.354H402.118V23.04H400.326V22.354ZM405.212 29.886H404.47V26.344H401.782V25.672H405.184V24.706H403.28V23.964H404.666V23.04H403.28V22.354H404.89V21.388H403.28V20.254H402.118V21.388H400.326V20.254H399.178V21.388H397.568V22.354H399.178V23.04H397.918V23.964H399.178V24.706H397.288V25.672H400.634V26.344H398.058V29.886H397.232V30.838H398.058V33.12H399.22V30.838H403.266V31.832C403.266 32 403.224 32.056 403.028 32.056C402.846 32.07 402.202 32.07 401.558 32.042C401.712 32.336 401.866 32.798 401.908 33.092C402.874 33.092 403.518 33.092 403.938 32.91C404.344 32.728 404.47 32.42 404.47 31.846V30.838H405.212V29.886Z" fill="#1061A3"/>
<path d="M155.784 30.216H157.536V24.96H162.408V23.328H157.536V18.072H155.784V23.328H150.912V24.96H155.784V30.216Z" fill="#62FBFF"/>
</svg>
